<svg width="36" height="20" viewBox="0 0 36 20" fill="none" xmlns="http://www.w3.org/2000/svg">
<path d="M25.8703 14.9514C25.5783 14.9514 25.2929 14.8648 25.0501 14.7026C24.8073 14.5404 24.618 14.3098 24.5063 14.04C24.3946 13.7703 24.3653 13.4734 24.4223 13.187C24.4793 12.9007 24.6199 12.6376 24.8263 12.4311C25.0328 12.2246 25.2959 12.084 25.5823 12.0271C25.8687 11.9701 26.1655 11.9993 26.4353 12.1111C26.705 12.2228 26.9356 12.412 27.0979 12.6548C27.2601 12.8976 27.3467 13.1831 27.3467 13.4751C27.3467 13.8666 27.1911 14.2421 26.9142 14.519C26.6374 14.7959 26.2619 14.9514 25.8703 14.9514ZM9.56257 14.9514C9.27057 14.9514 8.98513 14.8648 8.74234 14.7026C8.49955 14.5404 8.31032 14.3098 8.19858 14.04C8.08684 13.7703 8.0576 13.4734 8.11456 13.187C8.17153 12.9007 8.31214 12.6376 8.51862 12.4311C8.72509 12.2246 8.98815 12.084 9.27454 12.0271C9.56093 11.9701 9.85778 11.9993 10.1275 12.1111C10.3973 12.2228 10.6279 12.412 10.7901 12.6548C10.9523 12.8976 11.0389 13.1831 11.0389 13.4751C11.0389 13.8666 10.8834 14.2421 10.6065 14.519C10.3296 14.7959 9.95412 14.9514 9.56257 14.9514ZM26.3993 6.06369L29.3484 0.957913C29.3953 0.887988 29.4274 0.809175 29.4426 0.726354C29.4578 0.643534 29.4559 0.55847 29.4369 0.476431C29.4179 0.394393 29.3822 0.317126 29.3322 0.249418C29.2821 0.181709 29.2187 0.125001 29.1458 0.0828046C29.0729 0.0406084 28.9922 0.0138233 28.9085 0.00410794C28.8249 -0.0056074 28.7401 0.00195397 28.6595 0.0263239C28.5789 0.0506939 28.5042 0.0913532 28.4399 0.145784C28.3757 0.200214 28.3233 0.267257 28.286 0.342759L25.3 5.51436C22.9149 4.44462 20.3305 3.89159 17.7164 3.89159C15.1024 3.89159 12.5179 4.44462 10.1328 5.51436L7.14686 0.342759C7.10957 0.267257 7.05718 0.200214 6.99293 0.145784C6.92867 0.0913532 6.85393 0.0506939 6.77333 0.0263239C6.69272 0.00195397 6.60797 -0.0056074 6.52433 0.00410794C6.44068 0.0138233 6.35992 0.0406084 6.28705 0.0828046C6.21418 0.125001 6.15074 0.181709 6.10068 0.249418C6.05061 0.317126 6.01498 0.394393 5.99599 0.476431C5.977 0.55847 5.97506 0.643534 5.99028 0.726354C6.0055 0.809175 6.03757 0.887988 6.08449 0.957913L9.03353 6.06369C3.96959 8.81773 0.506887 13.9438 0 20H35.4329C34.926 13.9438 31.4627 8.81773 26.3993 6.06369Z" fill="#FFF8F9"/>
</svg>
