<svg width="49" height="41" viewBox="0 0 49 41" fill="none" xmlns="http://www.w3.org/2000/svg">
<path d="M41.9731 40.4867C43.8673 40.4867 45.4963 39.8222 46.8601 38.4933C48.186 37.1264 48.849 35.4937 48.849 33.5953V33.1396H44.1893V33.5953C44.1893 34.2028 43.9809 34.7343 43.5642 35.19C43.1096 35.6076 42.5793 35.8165 41.9731 35.8165H22.198C21.5918 35.8165 21.0804 35.6076 20.6637 35.19C20.2091 34.7343 19.9818 34.2028 19.9818 33.5953V28.5264C19.9818 27.9189 20.2091 27.4063 20.6637 26.9886C21.0804 26.533 21.5918 26.3052 22.198 26.3052H41.9731C43.8673 26.3052 45.4963 25.6407 46.8601 24.3118C48.186 22.9449 48.849 21.3123 48.849 19.4138V14.3449C48.849 12.4465 48.186 10.8328 46.8601 9.50388C45.4963 8.137 43.8673 7.45355 41.9731 7.45355H22.198C20.2659 7.45355 18.6369 8.137 17.311 9.50388C15.9472 10.8328 15.2653 12.4465 15.2653 14.3449V14.8006H19.9818V14.3449C19.9818 13.7374 20.2091 13.2249 20.6637 12.8072C21.0804 12.3516 21.5918 12.1238 22.198 12.1238H41.9731C42.5793 12.1238 43.1096 12.3516 43.5642 12.8072C43.9809 13.2249 44.1893 13.7374 44.1893 14.3449V19.4138C44.1893 20.0213 43.9809 20.5529 43.5642 21.0085C43.1096 21.4262 42.5793 21.635 41.9731 21.635H22.198C20.2659 21.635 18.6369 22.3185 17.311 23.6853C15.9472 25.0143 15.2653 26.6279 15.2653 28.5264V33.5953C15.2653 35.4937 15.9472 37.1264 17.311 38.4933C18.6369 39.8222 20.2659 40.4867 22.198 40.4867H41.9731Z" fill="#E43F5A"/>
<path d="M6.87584 32.9586C4.98167 32.9586 3.35268 32.2956 1.98888 30.9697C0.66296 29.6059 0 27.9769 0 26.0827V25.6281H4.65966V26.0827C4.65966 26.6889 4.86802 27.2192 5.28474 27.6738C5.73934 28.0906 6.26971 28.2989 6.87584 28.2989H26.651C27.2571 28.2989 27.7686 28.0906 28.1853 27.6738C28.6399 27.2192 28.8672 26.6889 28.8672 26.0827V21.0253C28.8672 20.4192 28.6399 19.9077 28.1853 19.491C27.7686 19.0364 27.2571 18.8091 26.651 18.8091H6.87584C4.98167 18.8091 3.35268 18.1462 1.98888 16.8202C0.66296 15.4564 0 13.8275 0 11.9333V6.87584C0 4.98167 0.66296 3.37163 1.98888 2.04571C3.35268 0.681902 4.98167 0 6.87584 0H26.651C28.583 0 30.212 0.681902 31.538 2.04571C32.9018 3.37163 33.5837 4.98167 33.5837 6.87584V7.33044H28.8672V6.87584C28.8672 6.26971 28.6399 5.75828 28.1853 5.34156C27.7686 4.88696 27.2571 4.65966 26.651 4.65966H6.87584C6.26971 4.65966 5.73934 4.88696 5.28474 5.34156C4.86802 5.75828 4.65966 6.26971 4.65966 6.87584V11.9333C4.65966 12.5394 4.86802 13.0698 5.28474 13.5244C5.73934 13.9411 6.26971 14.1495 6.87584 14.1495H26.651C28.583 14.1495 30.212 14.8314 31.538 16.1952C32.9018 17.5211 33.5837 19.1311 33.5837 21.0253V26.0827C33.5837 27.9769 32.9018 29.6059 31.538 30.9697C30.212 32.2956 28.583 32.9586 26.651 32.9586H6.87584Z" fill="#E43F5A"/>
</svg>
