<svg width="24" height="20" viewBox="0 0 24 20" fill="none" xmlns="http://www.w3.org/2000/svg">
<path fill-rule="evenodd" clip-rule="evenodd" d="M0 1.66667C0 1.22464 0.175595 0.800716 0.488155 0.488156C0.800716 0.175595 1.22464 0 1.66667 0H21.6667C22.1087 0 22.5326 0.175595 22.8452 0.488156C23.1577 0.800716 23.3333 1.22464 23.3333 1.66667C23.3333 2.10869 23.1577 2.53262 22.8452 2.84518C22.5326 3.15774 22.1087 3.33333 21.6667 3.33333H1.66667C1.22464 3.33333 0.800716 3.15774 0.488155 2.84518C0.175595 2.53262 0 2.10869 0 1.66667ZM0 10C0 9.55797 0.175595 9.13405 0.488155 8.82149C0.800716 8.50893 1.22464 8.33333 1.66667 8.33333H11.6667C12.1087 8.33333 12.5326 8.50893 12.8452 8.82149C13.1577 9.13405 13.3333 9.55797 13.3333 10C13.3333 10.442 13.1577 10.866 12.8452 11.1785C12.5326 11.4911 12.1087 11.6667 11.6667 11.6667H1.66667C1.22464 11.6667 0.800716 11.4911 0.488155 11.1785C0.175595 10.866 0 10.442 0 10ZM0 18.3333C0 17.8913 0.175595 17.4674 0.488155 17.1548C0.800716 16.8423 1.22464 16.6667 1.66667 16.6667H21.6667C22.1087 16.6667 22.5326 16.8423 22.8452 17.1548C23.1577 17.4674 23.3333 17.8913 23.3333 18.3333C23.3333 18.7754 23.1577 19.1993 22.8452 19.5118C22.5326 19.8244 22.1087 20 21.6667 20H1.66667C1.22464 20 0.800716 19.8244 0.488155 19.5118C0.175595 19.1993 0 18.7754 0 18.3333Z" fill="#FFF8F9"/>
</svg>
