<svg width="52" height="52" viewBox="0 0 62 62" fill="none" xmlns="http://www.w3.org/2000/svg">
<path d="M31 1C14.433 1 1 14.433 1 31C1 47.567 14.433 61 31 61C47.567 61 61 47.567 61 31C61 14.433 47.567 1 31 1ZM40.6496 31.4621L26.0246 42.1027C25.9444 42.1603 25.8499 42.1947 25.7514 42.2021C25.653 42.2095 25.5544 42.1896 25.4665 42.1446C25.3786 42.0996 25.3048 42.0313 25.2532 41.9471C25.2016 41.8629 25.1743 41.7661 25.1741 41.6674V20.3996C25.1738 20.3006 25.2009 20.2035 25.2523 20.1191C25.3038 20.0346 25.3777 19.966 25.4657 19.9209C25.5538 19.8758 25.6526 19.856 25.7513 19.8637C25.8499 19.8713 25.9445 19.9062 26.0246 19.9643L40.6496 30.5982C40.7186 30.6471 40.775 30.7118 40.8139 30.787C40.8528 30.8621 40.8731 30.9455 40.8731 31.0301C40.8731 31.1148 40.8528 31.1981 40.8139 31.2733C40.775 31.3485 40.7186 31.4132 40.6496 31.4621Z" fill="#E43F5A" stroke="#FFF8F9"/>
</svg>
