<svg width="985" height="197" viewBox="0 0 985 197" fill="none" xmlns="http://www.w3.org/2000/svg">
<g style="mix-blend-mode:difference" opacity="0.2">
<path d="M45.624 162C40.824 162 36.744 160.32 33.384 156.96C30.024 153.6 28.344 149.52 28.344 144.72V140.688H40.008V144.72C40.008 146.256 40.536 147.6 41.592 148.752C42.744 149.808 44.088 150.336 45.624 150.336H114.744C116.28 150.336 117.576 149.808 118.632 148.752C119.784 147.6 120.36 146.256 120.36 144.72V121.536C120.36 120 119.784 118.704 118.632 117.648C117.576 116.592 116.28 116.064 114.744 116.064H45.624C40.824 116.064 36.744 114.384 33.384 111.024C30.024 107.568 28.344 103.488 28.344 98.784V75.6C28.344 70.8 30.024 66.72 33.384 63.36C36.744 60 40.824 58.32 45.624 58.32H114.744C119.544 58.32 123.624 60 126.984 63.36C130.344 66.72 132.024 70.8 132.024 75.6V79.632H120.36V75.6C120.36 74.064 119.784 72.768 118.632 71.712C117.576 70.56 116.28 69.984 114.744 69.984H45.624C44.088 69.984 42.744 70.56 41.592 71.712C40.536 72.768 40.008 74.064 40.008 75.6V98.784C40.008 100.32 40.536 101.616 41.592 102.672C42.744 103.728 44.088 104.256 45.624 104.256H114.744C119.544 104.256 123.624 105.984 126.984 109.44C130.344 112.8 132.024 116.832 132.024 121.536V144.72C132.024 149.52 130.344 153.6 126.984 156.96C123.624 160.32 119.544 162 114.744 162H45.624ZM164.174 162C159.374 162 155.246 160.32 151.79 156.96C148.43 153.504 146.75 149.376 146.75 144.576V95.904C146.75 91.104 148.43 87.024 151.79 83.664C155.246 80.208 159.374 78.48 164.174 78.48H214.286C219.182 78.48 223.31 80.208 226.67 83.664C230.126 87.024 231.854 91.104 231.854 95.904V144.576C231.854 149.376 230.126 153.504 226.67 156.96C223.31 160.32 219.182 162 214.286 162H164.174ZM164.174 150.192H214.286C215.822 150.192 217.118 149.664 218.174 148.608C219.326 147.456 219.902 146.112 219.902 144.576V95.904C219.902 94.368 219.326 93.072 218.174 92.016C217.118 90.864 215.822 90.288 214.286 90.288H164.174C162.638 90.288 161.294 90.864 160.142 92.016C159.086 93.072 158.558 94.368 158.558 95.904V144.576C158.558 146.112 159.086 147.456 160.142 148.608C161.294 149.664 162.638 150.192 164.174 150.192ZM260.79 162C255.99 162 251.862 160.32 248.406 156.96C245.046 153.504 243.366 149.376 243.366 144.576V78.48H255.174V144.576C255.174 146.112 255.702 147.456 256.758 148.608C257.91 149.664 259.254 150.192 260.79 150.192H310.902C312.438 150.192 313.782 149.664 314.934 148.608C316.086 147.456 316.662 146.112 316.662 144.576V78.48H328.47V144.576C328.47 149.376 326.742 153.504 323.286 156.96C319.926 160.32 315.798 162 310.902 162H260.79ZM344.339 162V78.48H412.019C416.819 78.48 420.899 80.208 424.259 83.664C427.715 87.024 429.443 91.104 429.443 95.904V162H417.635V95.904C417.635 94.368 417.059 93.072 415.906 92.016C414.851 90.864 413.555 90.288 412.019 90.288H361.907C360.371 90.288 359.027 90.864 357.875 92.016C356.723 93.072 356.147 94.368 356.147 95.904V162H344.339ZM457.708 162C452.812 162 448.636 160.32 445.18 156.96C441.82 153.504 440.14 149.376 440.14 144.576V95.904C440.14 91.104 441.82 87.024 445.18 83.664C448.636 80.208 452.812 78.48 457.708 78.48H513.436V51.12H525.244V162H457.708ZM457.708 150.192H507.82C509.356 150.192 510.652 149.664 511.708 148.608C512.86 147.456 513.436 146.112 513.436 144.576V95.904C513.436 94.368 512.86 93.072 511.708 92.016C510.652 90.864 509.356 90.288 507.82 90.288H457.708C456.172 90.288 454.828 90.864 453.676 92.016C452.62 93.072 452.092 94.368 452.092 95.904V144.576C452.092 146.112 452.62 147.456 453.676 148.608C454.828 149.664 456.172 150.192 457.708 150.192ZM596.733 162C591.933 162 587.853 160.32 584.493 156.96C581.133 153.6 579.453 149.52 579.453 144.72V140.688H591.117V144.72C591.117 146.256 591.645 147.6 592.701 148.752C593.853 149.808 595.197 150.336 596.733 150.336H665.853C667.389 150.336 668.685 149.808 669.741 148.752C670.893 147.6 671.469 146.256 671.469 144.72V121.536C671.469 120 670.893 118.704 669.741 117.648C668.685 116.592 667.389 116.064 665.853 116.064H596.733C591.933 116.064 587.853 114.384 584.493 111.024C581.133 107.568 579.453 103.488 579.453 98.784V75.6C579.453 70.8 581.133 66.72 584.493 63.36C587.853 60 591.933 58.32 596.733 58.32H665.853C670.653 58.32 674.733 60 678.093 63.36C681.453 66.72 683.133 70.8 683.133 75.6V79.632H671.469V75.6C671.469 74.064 670.893 72.768 669.741 71.712C668.685 70.56 667.389 69.984 665.853 69.984H596.733C595.197 69.984 593.853 70.56 592.701 71.712C591.645 72.768 591.117 74.064 591.117 75.6V98.784C591.117 100.32 591.645 101.616 592.701 102.672C593.853 103.728 595.197 104.256 596.733 104.256H665.853C670.653 104.256 674.733 105.984 678.093 109.44C681.453 112.8 683.133 116.832 683.133 121.536V144.72C683.133 149.52 681.453 153.6 678.093 156.96C674.733 160.32 670.653 162 665.853 162H596.733ZM711.972 195.12V183.168H764.1C765.636 183.168 766.932 182.592 767.988 181.44C769.14 180.384 769.716 179.088 769.716 177.552V162H713.988C709.188 162 705.06 160.32 701.604 156.96C698.244 153.504 696.564 149.376 696.564 144.576V78.768H708.372V144.576C708.372 146.112 708.9 147.456 709.956 148.608C711.108 149.664 712.452 150.192 713.988 150.192H764.1C765.636 150.192 766.932 149.664 767.988 148.608C769.14 147.456 769.716 146.112 769.716 144.576V78.768H781.524V177.552C781.524 182.448 779.844 186.576 776.484 189.936C773.124 193.392 768.996 195.12 764.1 195.12H711.972ZM794.76 162V78.48H862.44C867.24 78.48 871.32 80.208 874.68 83.664C878.136 87.024 879.864 91.104 879.864 95.904V162H868.056V95.904C868.056 94.368 867.48 93.072 866.328 92.016C865.272 90.864 863.976 90.288 862.44 90.288H812.328C810.792 90.288 809.448 90.864 808.296 92.016C807.144 93.072 806.568 94.368 806.568 95.904V162H794.76ZM909.206 162C904.406 162 900.278 160.32 896.822 156.96C893.462 153.504 891.782 149.376 891.782 144.576V95.904C891.782 91.104 893.462 87.024 896.822 83.664C900.278 80.208 904.406 78.48 909.206 78.48H976.598V90.288H909.206C907.67 90.288 906.326 90.864 905.174 92.016C904.118 93.072 903.59 94.368 903.59 95.904V144.576C903.59 146.112 904.118 147.456 905.174 148.608C906.326 149.664 907.67 150.192 909.206 150.192H976.886V162H909.206Z" fill="#FFF8F9"/>
</g>
<g style="mix-blend-mode:difference" opacity="0.2">
<path d="M24.624 146C19.824 146 15.744 144.32 12.384 140.96C9.024 137.6 7.344 133.52 7.344 128.72V124.688H19.008V128.72C19.008 130.256 19.536 131.6 20.592 132.752C21.744 133.808 23.088 134.336 24.624 134.336H93.744C95.28 134.336 96.576 133.808 97.632 132.752C98.784 131.6 99.36 130.256 99.36 128.72V105.536C99.36 104 98.784 102.704 97.632 101.648C96.576 100.592 95.28 100.064 93.744 100.064H24.624C19.824 100.064 15.744 98.384 12.384 95.024C9.024 91.568 7.344 87.488 7.344 82.784V59.6C7.344 54.8 9.024 50.72 12.384 47.36C15.744 44 19.824 42.32 24.624 42.32H93.744C98.544 42.32 102.624 44 105.984 47.36C109.344 50.72 111.024 54.8 111.024 59.6V63.632H99.36V59.6C99.36 58.064 98.784 56.768 97.632 55.712C96.576 54.56 95.28 53.984 93.744 53.984H24.624C23.088 53.984 21.744 54.56 20.592 55.712C19.536 56.768 19.008 58.064 19.008 59.6V82.784C19.008 84.32 19.536 85.616 20.592 86.672C21.744 87.728 23.088 88.256 24.624 88.256H93.744C98.544 88.256 102.624 89.984 105.984 93.44C109.344 96.8 111.024 100.832 111.024 105.536V128.72C111.024 133.52 109.344 137.6 105.984 140.96C102.624 144.32 98.544 146 93.744 146H24.624ZM143.174 146C138.374 146 134.246 144.32 130.79 140.96C127.43 137.504 125.75 133.376 125.75 128.576V79.904C125.75 75.104 127.43 71.024 130.79 67.664C134.246 64.208 138.374 62.48 143.174 62.48H193.286C198.182 62.48 202.31 64.208 205.67 67.664C209.126 71.024 210.854 75.104 210.854 79.904V128.576C210.854 133.376 209.126 137.504 205.67 140.96C202.31 144.32 198.182 146 193.286 146H143.174ZM143.174 134.192H193.286C194.822 134.192 196.118 133.664 197.174 132.608C198.326 131.456 198.902 130.112 198.902 128.576V79.904C198.902 78.368 198.326 77.072 197.174 76.016C196.118 74.864 194.822 74.288 193.286 74.288H143.174C141.638 74.288 140.294 74.864 139.142 76.016C138.086 77.072 137.558 78.368 137.558 79.904V128.576C137.558 130.112 138.086 131.456 139.142 132.608C140.294 133.664 141.638 134.192 143.174 134.192ZM239.79 146C234.99 146 230.862 144.32 227.406 140.96C224.046 137.504 222.366 133.376 222.366 128.576V62.48H234.174V128.576C234.174 130.112 234.702 131.456 235.758 132.608C236.91 133.664 238.254 134.192 239.79 134.192H289.902C291.438 134.192 292.782 133.664 293.934 132.608C295.086 131.456 295.662 130.112 295.662 128.576V62.48H307.47V128.576C307.47 133.376 305.742 137.504 302.286 140.96C298.926 144.32 294.798 146 289.902 146H239.79ZM323.339 146V62.48H391.019C395.819 62.48 399.899 64.208 403.259 67.664C406.715 71.024 408.443 75.104 408.443 79.904V146H396.635V79.904C396.635 78.368 396.059 77.072 394.906 76.016C393.851 74.864 392.555 74.288 391.019 74.288H340.907C339.371 74.288 338.027 74.864 336.875 76.016C335.723 77.072 335.147 78.368 335.147 79.904V146H323.339ZM436.708 146C431.812 146 427.636 144.32 424.18 140.96C420.82 137.504 419.14 133.376 419.14 128.576V79.904C419.14 75.104 420.82 71.024 424.18 67.664C427.636 64.208 431.812 62.48 436.708 62.48H492.436V35.12H504.244V146H436.708ZM436.708 134.192H486.82C488.356 134.192 489.652 133.664 490.708 132.608C491.86 131.456 492.436 130.112 492.436 128.576V79.904C492.436 78.368 491.86 77.072 490.708 76.016C489.652 74.864 488.356 74.288 486.82 74.288H436.708C435.172 74.288 433.828 74.864 432.676 76.016C431.62 77.072 431.092 78.368 431.092 79.904V128.576C431.092 130.112 431.62 131.456 432.676 132.608C433.828 133.664 435.172 134.192 436.708 134.192ZM575.733 146C570.933 146 566.853 144.32 563.493 140.96C560.133 137.6 558.453 133.52 558.453 128.72V124.688H570.117V128.72C570.117 130.256 570.645 131.6 571.701 132.752C572.853 133.808 574.197 134.336 575.733 134.336H644.853C646.389 134.336 647.685 133.808 648.741 132.752C649.893 131.6 650.469 130.256 650.469 128.72V105.536C650.469 104 649.893 102.704 648.741 101.648C647.685 100.592 646.389 100.064 644.853 100.064H575.733C570.933 100.064 566.853 98.384 563.493 95.024C560.133 91.568 558.453 87.488 558.453 82.784V59.6C558.453 54.8 560.133 50.72 563.493 47.36C566.853 44 570.933 42.32 575.733 42.32H644.853C649.653 42.32 653.733 44 657.093 47.36C660.453 50.72 662.133 54.8 662.133 59.6V63.632H650.469V59.6C650.469 58.064 649.893 56.768 648.741 55.712C647.685 54.56 646.389 53.984 644.853 53.984H575.733C574.197 53.984 572.853 54.56 571.701 55.712C570.645 56.768 570.117 58.064 570.117 59.6V82.784C570.117 84.32 570.645 85.616 571.701 86.672C572.853 87.728 574.197 88.256 575.733 88.256H644.853C649.653 88.256 653.733 89.984 657.093 93.44C660.453 96.8 662.133 100.832 662.133 105.536V128.72C662.133 133.52 660.453 137.6 657.093 140.96C653.733 144.32 649.653 146 644.853 146H575.733ZM690.972 179.12V167.168H743.1C744.636 167.168 745.932 166.592 746.988 165.44C748.14 164.384 748.716 163.088 748.716 161.552V146H692.988C688.188 146 684.06 144.32 680.604 140.96C677.244 137.504 675.564 133.376 675.564 128.576V62.768H687.372V128.576C687.372 130.112 687.9 131.456 688.956 132.608C690.108 133.664 691.452 134.192 692.988 134.192H743.1C744.636 134.192 745.932 133.664 746.988 132.608C748.14 131.456 748.716 130.112 748.716 128.576V62.768H760.524V161.552C760.524 166.448 758.844 170.576 755.484 173.936C752.124 177.392 747.996 179.12 743.1 179.12H690.972ZM773.76 146V62.48H841.44C846.24 62.48 850.32 64.208 853.68 67.664C857.136 71.024 858.864 75.104 858.864 79.904V146H847.056V79.904C847.056 78.368 846.48 77.072 845.328 76.016C844.272 74.864 842.976 74.288 841.44 74.288H791.328C789.792 74.288 788.448 74.864 787.296 76.016C786.144 77.072 785.568 78.368 785.568 79.904V146H773.76ZM888.206 146C883.406 146 879.278 144.32 875.822 140.96C872.462 137.504 870.782 133.376 870.782 128.576V79.904C870.782 75.104 872.462 71.024 875.822 67.664C879.278 64.208 883.406 62.48 888.206 62.48H955.598V74.288H888.206C886.67 74.288 885.326 74.864 884.174 76.016C883.118 77.072 882.59 78.368 882.59 79.904V128.576C882.59 130.112 883.118 131.456 884.174 132.608C885.326 133.664 886.67 134.192 888.206 134.192H955.886V146H888.206Z" fill="#FFF8F9"/>
</g>
<path d="M36.624 150C31.824 150 27.744 148.32 24.384 144.96C21.024 141.6 19.344 137.52 19.344 132.72V128.688H31.008V132.72C31.008 134.256 31.536 135.6 32.592 136.752C33.744 137.808 35.088 138.336 36.624 138.336H105.744C107.28 138.336 108.576 137.808 109.632 136.752C110.784 135.6 111.36 134.256 111.36 132.72V109.536C111.36 108 110.784 106.704 109.632 105.648C108.576 104.592 107.28 104.064 105.744 104.064H36.624C31.824 104.064 27.744 102.384 24.384 99.024C21.024 95.568 19.344 91.488 19.344 86.784V63.6C19.344 58.8 21.024 54.72 24.384 51.36C27.744 48 31.824 46.32 36.624 46.32H105.744C110.544 46.32 114.624 48 117.984 51.36C121.344 54.72 123.024 58.8 123.024 63.6V67.632H111.36V63.6C111.36 62.064 110.784 60.768 109.632 59.712C108.576 58.56 107.28 57.984 105.744 57.984H36.624C35.088 57.984 33.744 58.56 32.592 59.712C31.536 60.768 31.008 62.064 31.008 63.6V86.784C31.008 88.32 31.536 89.616 32.592 90.672C33.744 91.728 35.088 92.256 36.624 92.256H105.744C110.544 92.256 114.624 93.984 117.984 97.44C121.344 100.8 123.024 104.832 123.024 109.536V132.72C123.024 137.52 121.344 141.6 117.984 144.96C114.624 148.32 110.544 150 105.744 150H36.624ZM155.174 150C150.374 150 146.246 148.32 142.79 144.96C139.43 141.504 137.75 137.376 137.75 132.576V83.904C137.75 79.104 139.43 75.024 142.79 71.664C146.246 68.208 150.374 66.48 155.174 66.48H205.286C210.182 66.48 214.31 68.208 217.67 71.664C221.126 75.024 222.854 79.104 222.854 83.904V132.576C222.854 137.376 221.126 141.504 217.67 144.96C214.31 148.32 210.182 150 205.286 150H155.174ZM155.174 138.192H205.286C206.822 138.192 208.118 137.664 209.174 136.608C210.326 135.456 210.902 134.112 210.902 132.576V83.904C210.902 82.368 210.326 81.072 209.174 80.016C208.118 78.864 206.822 78.288 205.286 78.288H155.174C153.638 78.288 152.294 78.864 151.142 80.016C150.086 81.072 149.558 82.368 149.558 83.904V132.576C149.558 134.112 150.086 135.456 151.142 136.608C152.294 137.664 153.638 138.192 155.174 138.192ZM251.79 150C246.99 150 242.862 148.32 239.406 144.96C236.046 141.504 234.366 137.376 234.366 132.576V66.48H246.174V132.576C246.174 134.112 246.702 135.456 247.758 136.608C248.91 137.664 250.254 138.192 251.79 138.192H301.902C303.438 138.192 304.782 137.664 305.934 136.608C307.086 135.456 307.662 134.112 307.662 132.576V66.48H319.47V132.576C319.47 137.376 317.742 141.504 314.286 144.96C310.926 148.32 306.798 150 301.902 150H251.79ZM335.339 150V66.48H403.019C407.819 66.48 411.899 68.208 415.259 71.664C418.715 75.024 420.443 79.104 420.443 83.904V150H408.635V83.904C408.635 82.368 408.059 81.072 406.906 80.016C405.851 78.864 404.555 78.288 403.019 78.288H352.907C351.371 78.288 350.027 78.864 348.875 80.016C347.723 81.072 347.147 82.368 347.147 83.904V150H335.339ZM448.708 150C443.812 150 439.636 148.32 436.18 144.96C432.82 141.504 431.14 137.376 431.14 132.576V83.904C431.14 79.104 432.82 75.024 436.18 71.664C439.636 68.208 443.812 66.48 448.708 66.48H504.436V39.12H516.244V150H448.708ZM448.708 138.192H498.82C500.356 138.192 501.652 137.664 502.708 136.608C503.86 135.456 504.436 134.112 504.436 132.576V83.904C504.436 82.368 503.86 81.072 502.708 80.016C501.652 78.864 500.356 78.288 498.82 78.288H448.708C447.172 78.288 445.828 78.864 444.676 80.016C443.62 81.072 443.092 82.368 443.092 83.904V132.576C443.092 134.112 443.62 135.456 444.676 136.608C445.828 137.664 447.172 138.192 448.708 138.192ZM587.733 150C582.933 150 578.853 148.32 575.493 144.96C572.133 141.6 570.453 137.52 570.453 132.72V128.688H582.117V132.72C582.117 134.256 582.645 135.6 583.701 136.752C584.853 137.808 586.197 138.336 587.733 138.336H656.853C658.389 138.336 659.685 137.808 660.741 136.752C661.893 135.6 662.469 134.256 662.469 132.72V109.536C662.469 108 661.893 106.704 660.741 105.648C659.685 104.592 658.389 104.064 656.853 104.064H587.733C582.933 104.064 578.853 102.384 575.493 99.024C572.133 95.568 570.453 91.488 570.453 86.784V63.6C570.453 58.8 572.133 54.72 575.493 51.36C578.853 48 582.933 46.32 587.733 46.32H656.853C661.653 46.32 665.733 48 669.093 51.36C672.453 54.72 674.133 58.8 674.133 63.6V67.632H662.469V63.6C662.469 62.064 661.893 60.768 660.741 59.712C659.685 58.56 658.389 57.984 656.853 57.984H587.733C586.197 57.984 584.853 58.56 583.701 59.712C582.645 60.768 582.117 62.064 582.117 63.6V86.784C582.117 88.32 582.645 89.616 583.701 90.672C584.853 91.728 586.197 92.256 587.733 92.256H656.853C661.653 92.256 665.733 93.984 669.093 97.44C672.453 100.8 674.133 104.832 674.133 109.536V132.72C674.133 137.52 672.453 141.6 669.093 144.96C665.733 148.32 661.653 150 656.853 150H587.733ZM702.972 183.12V171.168H755.1C756.636 171.168 757.932 170.592 758.988 169.44C760.14 168.384 760.716 167.088 760.716 165.552V150H704.988C700.188 150 696.06 148.32 692.604 144.96C689.244 141.504 687.564 137.376 687.564 132.576V66.768H699.372V132.576C699.372 134.112 699.9 135.456 700.956 136.608C702.108 137.664 703.452 138.192 704.988 138.192H755.1C756.636 138.192 757.932 137.664 758.988 136.608C760.14 135.456 760.716 134.112 760.716 132.576V66.768H772.524V165.552C772.524 170.448 770.844 174.576 767.484 177.936C764.124 181.392 759.996 183.12 755.1 183.12H702.972ZM785.76 150V66.48H853.44C858.24 66.48 862.32 68.208 865.68 71.664C869.136 75.024 870.864 79.104 870.864 83.904V150H859.056V83.904C859.056 82.368 858.48 81.072 857.328 80.016C856.272 78.864 854.976 78.288 853.44 78.288H803.328C801.792 78.288 800.448 78.864 799.296 80.016C798.144 81.072 797.568 82.368 797.568 83.904V150H785.76ZM900.206 150C895.406 150 891.278 148.32 887.822 144.96C884.462 141.504 882.782 137.376 882.782 132.576V83.904C882.782 79.104 884.462 75.024 887.822 71.664C891.278 68.208 895.406 66.48 900.206 66.48H967.598V78.288H900.206C898.67 78.288 897.326 78.864 896.174 80.016C895.118 81.072 894.59 82.368 894.59 83.904V132.576C894.59 134.112 895.118 135.456 896.174 136.608C897.326 137.664 898.67 138.192 900.206 138.192H967.886V150H900.206Z" fill="#E43F5A"/>
</svg>
