<svg width="101" height="20" viewBox="0 0 101 20" fill="none" xmlns="http://www.w3.org/2000/svg">
<path d="M96.7643 6.58571L89.5 7.64286L94.7571 12.7643L93.5143 20L100.014 16.5857V0L96.7643 6.58571Z" fill="#FFF500"/>
<path d="M77.5143 0L74.2643 6.58571L67 7.63571L72.2571 12.7643L71.0143 20L77.5143 16.5857L84.0143 20L82.7714 12.7643L88.0286 7.64286L80.7643 6.58571L77.5143 0Z" fill="#FFF500"/>
<path d="M10.5143 0L7.26429 6.58571L0 7.63571L5.25714 12.7643L4.01429 20L10.5143 16.5857L17.0143 20L15.7714 12.7643L21.0286 7.64286L13.7643 6.58571L10.5143 0Z" fill="#FFF500"/>
<path d="M33.0143 0L29.7643 6.58571L22.5 7.63571L27.7571 12.7643L26.5143 20L33.0143 16.5857L39.5143 20L38.2714 12.7643L43.5286 7.64286L36.2643 6.58571L33.0143 0Z" fill="#FFF500"/>
<path d="M55.5143 0L52.2643 6.58571L45 7.63571L50.2571 12.7643L49.0143 20L55.5143 16.5857L62.0143 20L60.7714 12.7643L66.0286 7.64286L58.7643 6.58571L55.5143 0Z" fill="#FFF500"/>
</svg>
