<svg width="60" height="60" viewBox="0 0 60 60" fill="none" xmlns="http://www.w3.org/2000/svg">
<path d="M30 0C13.4312 0 0 13.4312 0 30C0 46.5687 13.4312 60 30 60C46.5687 60 60 46.5687 60 30C60 13.4312 46.5687 0 30 0ZM42.2031 24.575C42.2156 24.8312 42.2187 25.0875 42.2187 25.3375C42.2187 33.15 36.2781 42.1531 25.4094 42.1531C22.1978 42.1585 19.053 41.2361 16.3531 39.4969C16.8125 39.5531 17.2844 39.575 17.7625 39.575C20.5312 39.575 23.0781 38.6344 25.1 37.0469C23.8679 37.0227 22.674 36.6147 21.6847 35.8797C20.6955 35.1448 19.9602 34.1196 19.5812 32.9469C20.4661 33.1151 21.3777 33.0799 22.2469 32.8438C20.9095 32.5733 19.7069 31.8487 18.8428 30.7927C17.9788 29.7367 17.5066 28.4144 17.5062 27.05V26.9781C18.3031 27.4187 19.2156 27.6875 20.1844 27.7188C18.9306 26.8841 18.0431 25.6021 17.7033 24.1348C17.3634 22.6675 17.597 21.1258 18.3562 19.825C19.8405 21.65 21.6914 23.143 23.7893 24.2072C25.8871 25.2715 28.1851 25.8833 30.5344 26.0031C30.2357 24.7353 30.3642 23.4044 30.9 22.2172C31.4358 21.03 32.3488 20.0531 33.4971 19.4383C34.6454 18.8236 35.9646 18.6054 37.2497 18.8177C38.5347 19.0301 39.7136 19.661 40.6031 20.6125C41.9255 20.3509 43.1937 19.8658 44.3531 19.1781C43.9124 20.5473 42.9896 21.7099 41.7562 22.45C42.9276 22.3089 44.0715 21.994 45.15 21.5156C44.3578 22.7028 43.3598 23.7389 42.2031 24.575Z" fill="#FFF8F9"/>
</svg>
